<svg width="40" height="83" viewBox="0 0 40 83" fill="none" xmlns="http://www.w3.org/2000/svg">
<path d="M0 0V82.3692L20 72.5539L40 82.3692V15.2L0 0ZM32.8616 26.9538C32.8616 26.9538 34.4923 37.3846 27.0769 42.3692C26.3385 41.1077 25.3846 40.0615 24.3077 39.2C25.6308 38.1846 30.4923 34.0615 32.8616 26.9538ZM20 69.4154L2.24617 78.5231V44.7077C3.0154 43.6615 3.87692 42.6461 4.79999 41.6L5.5077 40.7385C6.24616 41.9385 7.35384 42.8615 8.33845 43.4769L10.1231 44.4308C10.1231 44.4308 1.26153 37.6 7.56922 31.1385C13.8461 24.7077 18.0308 25.2308 22.0308 17.4769C22.0308 17.4769 22.1231 26.1231 15.2615 30.3692C8.43076 34.6154 14.3077 40.7385 14.3077 40.7385C14.3077 40.7385 12.6769 38.4615 12.9846 36.0923C12.9846 36.0923 24.0615 36.8615 27.0462 44.8615L32.7385 58.6769C32.7385 58.6769 31.3538 62.7692 26.6461 64.5539C26.6461 64.5539 22.4923 60.9538 18.0923 59.1385L37.8154 78.5539L20 69.4154Z" fill="white"/>
</svg>
