<svg width="24" height="50" viewBox="0 0 24 50" fill="none" xmlns="http://www.w3.org/2000/svg">
<path d="M0 0V49.2L12 43.3372L24 49.2V9.07912L0 0ZM19.7169 16.0998C19.7169 16.0998 20.6954 22.3302 16.2462 25.3076C15.8031 24.5541 15.2308 23.9292 14.5846 23.4146C15.3785 22.8081 18.2954 20.3453 19.7169 16.0998ZM12 41.4625L1.3477 46.9027V26.7044C1.80924 26.0795 2.32615 25.473 2.88 24.8481L3.30462 24.3335C3.7477 25.0503 4.4123 25.6016 5.00307 25.9692L6.07385 26.539C6.07385 26.539 0.756919 22.4589 4.54153 18.5993C8.30769 14.7582 10.8185 15.0706 13.2185 10.4391C13.2185 10.4391 13.2738 15.6036 9.15692 18.1399C5.05846 20.6761 8.58462 24.3335 8.58462 24.3335C8.58462 24.3335 7.60614 22.9735 7.79076 21.5583C7.79076 21.5583 14.4369 22.0178 16.2277 26.7963L19.6431 35.0483C19.6431 35.0483 18.8123 37.4927 15.9877 38.5587C15.9877 38.5587 13.4954 36.4084 10.8554 35.324L22.6892 46.921L12 41.4625Z" fill="url(#paint0_linear_16_9363)"/>
<defs>
<linearGradient id="paint0_linear_16_9363" x1="0" y1="24.5905" x2="24.0041" y2="24.5905" gradientUnits="userSpaceOnUse">
<stop stop-color="#8F4DED"/>
<stop offset="1" stop-color="#6D43E1"/>
</linearGradient>
</defs>
</svg>
