<svg width="159" height="53" viewBox="0 0 159 53" fill="none" xmlns="http://www.w3.org/2000/svg">
<path d="M37.7598 15.6035H45.8879C49.9128 15.6035 52.681 17.861 52.681 21.5123C52.681 23.9858 51.1889 25.8114 49.7164 26.4004C51.4441 26.8911 53.4271 28.5597 53.4271 31.5632C53.4271 35.2341 50.4036 37.5505 46.1432 37.5505H37.7794V15.6035H37.7598ZM41.8239 19.1959V24.7514H45.5542C47.4782 24.7514 48.5188 23.4165 48.5188 21.846C48.5188 20.3934 47.3997 19.1959 45.456 19.1959H41.8239ZM41.8239 33.9581H46.0843C47.9102 33.9581 49.1667 32.6233 49.1667 30.9547C49.1667 29.3449 47.6746 28.0493 45.7309 28.0493H41.8042V33.9581H41.8239Z" fill="white"/>
<path d="M70.966 28.5473C70.966 29.221 70.8493 29.9139 70.7132 30.4529H59.7636C60.0165 32.8782 62.0586 34.1486 64.3535 34.1486C66.1233 34.1486 67.5431 33.3979 68.4571 32.4162L70.6548 35.0148C68.7489 36.8048 66.7068 37.5555 64.159 37.5555C59.0246 37.5555 55.6211 34.0331 55.6211 29.4905C55.6211 24.9479 58.9662 21.3677 63.6144 21.3677C68.0487 21.3869 70.966 24.4474 70.966 28.5473ZM59.7636 27.7774H67.0763V27.7389C66.9207 25.8525 65.4621 24.6784 63.595 24.6784C61.6307 24.6976 60.0554 25.8525 59.7636 27.7774Z" fill="white"/>
<path d="M74.0781 15.6895H78.0651V32.32C78.0651 33.2824 78.2401 34.0716 79.4459 34.0716C79.7182 34.0716 80.0877 34.0331 80.4961 33.8984V37.2283C79.971 37.4401 79.3681 37.5556 78.6291 37.5556C76.0619 37.5556 74.0976 36.2467 74.0976 33.013V15.6895H74.0781Z" fill="white"/>
<path d="M83.1992 15.6895H87.1862V32.32C87.1862 33.2824 87.3612 34.0716 88.567 34.0716C88.8393 34.0716 89.2088 34.0331 89.6172 33.8984V37.2283C89.0921 37.4401 88.4892 37.5556 87.7502 37.5556C85.183 37.5556 83.2187 36.2467 83.2187 33.013V15.6895H83.1992Z" fill="white"/>
<path d="M106.362 28.5473C106.362 29.221 106.246 29.9139 106.11 30.4529H95.1601C95.413 32.8782 97.4551 34.1486 99.75 34.1486C101.52 34.1486 102.94 33.3979 103.854 32.4162L106.051 35.0148C104.145 36.8048 102.103 37.5555 99.5555 37.5555C94.4211 37.5555 91.0176 34.0331 91.0176 29.4905C91.0176 24.9479 94.3627 21.3677 99.0109 21.3677C103.465 21.3869 106.362 24.4474 106.362 28.5473ZM95.1601 27.7774H102.473V27.7389C102.317 25.8525 100.859 24.6784 98.9915 24.6784C97.0272 24.6976 95.4713 25.8525 95.1601 27.7774Z" fill="white"/>
<path d="M124.994 29.4715C124.994 34.0141 121.513 37.5558 116.729 37.5558C111.964 37.5558 108.463 34.0141 108.463 29.4715C108.463 24.9289 111.944 21.3872 116.729 21.3872C121.513 21.3872 124.994 24.9289 124.994 29.4715ZM112.508 29.4715C112.508 32.0508 114.278 33.9756 116.729 33.9756C119.179 33.9756 120.949 32.0315 120.949 29.4715C120.949 26.9115 119.179 24.9674 116.729 24.9674C114.297 24.9674 112.508 26.9115 112.508 29.4715Z" fill="white"/>
<path d="M152.033 26.42L158.742 15.6035H154.071L149.342 23.338L144.612 15.6035H128.146V37.5505H132.243V28.7168H140.04V25.1636H132.243V19.1959H142.178L146.67 26.42L139.684 37.5505H144.295L149.342 29.4824L154.388 37.5505H158.999L152.033 26.42Z" fill="white"/>
<path d="M0 0.736328V52.2641L12.6416 46.1239L25.2831 52.2641V10.245L0 0.736328ZM20.7711 17.5979C20.7711 17.5979 21.8018 24.1231 17.1147 27.2413C16.648 26.4521 16.0451 25.7977 15.3644 25.2587C16.2006 24.6235 19.2735 22.0442 20.7711 17.5979ZM12.6416 44.1606L1.41975 49.8581V28.7042C1.90597 28.0497 2.45051 27.4145 3.03397 26.7601L3.4813 26.2211C3.94806 26.9718 4.6482 27.5493 5.27055 27.9342L6.39858 28.5309C6.39858 28.5309 0.797386 24.2578 4.78434 20.2156C8.75185 16.1927 11.3968 16.52 13.9252 11.6694C13.9252 11.6694 13.9835 17.0782 9.64648 19.7344C5.3289 22.3907 9.04358 26.2211 9.04358 26.2211C9.04358 26.2211 8.0128 24.7967 8.20728 23.3146C8.20728 23.3146 15.2088 23.7958 17.0953 28.8004L20.6933 37.4429C20.6933 37.4429 19.8181 40.0029 16.8424 41.1193C16.8424 41.1193 14.2169 38.8673 11.4358 37.7316L23.9023 49.8773L12.6416 44.1606Z" fill="white"/>
</svg>
