<svg width="132" height="24" viewBox="0 0 132 24" fill="none" xmlns="http://www.w3.org/2000/svg">
<path d="M0.609375 0.280518H9.35098C13.6796 0.280518 16.6568 2.70842 16.6568 6.63528C16.6568 9.29541 15.052 11.2588 13.4684 11.8922C15.3265 12.42 17.4591 14.2145 17.4591 17.4447C17.4591 21.3927 14.2074 23.8839 9.62549 23.8839H0.630511V0.280518H0.609375ZM4.98019 4.14404V10.1188H8.99204C11.0613 10.1188 12.1804 8.68315 12.1804 6.99418C12.1804 5.43188 10.9768 4.14404 8.88646 4.14404H4.98019ZM4.98019 20.0204H9.56213C11.5258 20.0204 12.8772 18.5848 12.8772 16.7902C12.8772 15.059 11.2725 13.6656 9.18208 13.6656H4.95908V20.0204H4.98019Z" fill="black"/>
<path d="M36.3233 14.2015C36.3233 14.926 36.1978 15.6712 36.0514 16.2509H24.2755C24.5474 18.8592 26.7436 20.2255 29.2118 20.2255C31.1152 20.2255 32.642 19.4181 33.6251 18.3624L35.9887 21.157C33.9389 23.0822 31.7426 23.8895 29.0026 23.8895C23.4807 23.8895 19.8203 20.1013 19.8203 15.2158C19.8203 10.3304 23.4179 6.47998 28.4169 6.47998C33.1859 6.50068 36.3233 9.79214 36.3233 14.2015ZM24.2755 13.3734H32.1401V13.332C31.9727 11.3033 30.404 10.0406 28.396 10.0406C26.2835 10.0613 24.5893 11.3033 24.2755 13.3734Z" fill="black"/>
<path d="M39.6699 0.373169H43.9578V18.2589C43.9578 19.2939 44.146 20.1426 45.4428 20.1426C45.7357 20.1426 46.1331 20.1012 46.5723 19.9563V23.5376C46.0076 23.7653 45.3592 23.8895 44.5644 23.8895C41.8034 23.8895 39.6908 22.4819 39.6908 19.0041V0.373169H39.6699Z" fill="black"/>
<path d="M49.4785 0.373169H53.7664V18.2589C53.7664 19.2939 53.9546 20.1426 55.2514 20.1426C55.5443 20.1426 55.9417 20.1012 56.3809 19.9563V23.5376C55.8162 23.7653 55.1677 23.8895 54.3729 23.8895C51.612 23.8895 49.4994 22.4819 49.4994 19.0041V0.373169H49.4785Z" fill="black"/>
<path d="M74.3897 14.2015C74.3897 14.926 74.2642 15.6712 74.1178 16.2509H62.3419C62.6138 18.8592 64.81 20.2255 67.2782 20.2255C69.1816 20.2255 70.7084 19.4181 71.6915 18.3624L74.0551 21.157C72.0053 23.0822 69.809 23.8895 67.069 23.8895C61.5471 23.8895 57.8867 20.1013 57.8867 15.2158C57.8867 10.3304 61.4843 6.47998 66.4833 6.47998C71.2732 6.50068 74.3897 9.79214 74.3897 14.2015ZM62.3419 13.3734H70.2065V13.332C70.0391 11.3033 68.4704 10.0406 66.4624 10.0406C64.3499 10.0613 62.6766 11.3033 62.3419 13.3734Z" fill="black"/>
<path d="M94.4293 15.1954C94.4293 20.0808 90.6853 23.8898 85.5398 23.8898C80.4153 23.8898 76.6504 20.0808 76.6504 15.1954C76.6504 10.31 80.3944 6.50098 85.5398 6.50098C90.6853 6.50098 94.4293 10.31 94.4293 15.1954ZM81.001 15.1954C81.001 17.9693 82.9044 20.0394 85.5398 20.0394C88.1753 20.0394 90.0787 17.9486 90.0787 15.1954C90.0787 12.4422 88.1753 10.3514 85.5398 10.3514C82.9253 10.3514 81.001 12.4422 81.001 15.1954Z" fill="black"/>
<path d="M123.51 11.9133L130.725 0.280518H125.702L120.615 8.5987L115.528 0.280518H97.8203V23.8839H102.226V14.3834H110.612V10.5621H102.226V4.14404H112.91L117.742 11.9133L110.229 23.8839H115.188L120.615 15.2068L126.042 23.8839H131.001L123.51 11.9133Z" fill="url(#paint0_linear_16_1874)"/>
<defs>
<linearGradient id="paint0_linear_16_1874" x1="97.8126" y1="12.0831" x2="131.004" y2="12.0831" gradientUnits="userSpaceOnUse">
<stop stop-color="#8F4DED"/>
<stop offset="1" stop-color="#6D43E1"/>
</linearGradient>
</defs>
</svg>
