<svg width="20" height="15" viewBox="0 0 20 15" fill="none" xmlns="http://www.w3.org/2000/svg">
<mask id="mask0_101_622" style="mask-type:alpha" maskUnits="userSpaceOnUse" x="0" y="0" width="20" height="15">
<rect width="20" height="15" fill="white"/>
</mask>
<g mask="url(#mask0_101_622)">
<path fill-rule="evenodd" clip-rule="evenodd" d="M0 0H20V15H0V0Z" fill="#E31D1C"/>
<path fill-rule="evenodd" clip-rule="evenodd" d="M0 1.25V2.5H20V1.25H0ZM0 3.75V5H20V3.75H0ZM0 7.5V6.25H20V7.5H0ZM0 8.75V10H20V8.75H0ZM0 12.5V11.25H20V12.5H0ZM0 15V13.75H20V15H0Z" fill="#F7FCFF"/>
<rect width="11.25" height="8.75" fill="#2E42A5"/>
<path fill-rule="evenodd" clip-rule="evenodd" d="M1.30025 2.71725L1.96265 2.25583L2.47647 2.62575H2.18555L2.77388 3.14612L2.57517 3.87575H2.26393L1.96172 3.20563L1.70399 3.87575H0.935547L1.52388 4.39612L1.30025 5.21725L1.96265 4.75583L2.47647 5.12575H2.18555L2.77388 5.64612L2.57517 6.37575H2.26393L1.96172 5.70563L1.70399 6.37575H0.935547L1.52388 6.89612L1.30025 7.71725L1.96265 7.25583L2.60357 7.71725L2.4043 6.89612L2.91901 6.37575H2.6816L3.21265 6.00583L3.72647 6.37575H3.43555L4.02388 6.89612L3.80025 7.71725L4.46265 7.25583L5.10357 7.71725L4.9043 6.89612L5.41901 6.37575H5.1816L5.71265 6.00583L6.22647 6.37575H5.93555L6.52388 6.89612L6.30025 7.71725L6.96265 7.25583L7.60357 7.71725L7.4043 6.89612L7.91901 6.37575H7.6816L8.21265 6.00583L8.72647 6.37575H8.43555L9.02388 6.89612L8.80025 7.71725L9.46265 7.25583L10.1036 7.71725L9.9043 6.89612L10.419 6.37575H9.76393L9.46172 5.70563L9.20399 6.37575H8.83136L8.6543 5.64612L9.16901 5.12575H8.9316L9.46265 4.75583L10.1036 5.21725L9.9043 4.39612L10.419 3.87575H9.76393L9.46172 3.20563L9.20399 3.87575H8.83136L8.6543 3.14612L9.16901 2.62575H8.9316L9.46265 2.25583L10.1036 2.71725L9.9043 1.89612L10.419 1.37575H9.76393L9.46172 0.705627L9.20399 1.37575H8.43555L9.02388 1.89612L8.82517 2.62575H8.51393L8.21172 1.95563L7.95399 2.62575H7.58136L7.4043 1.89612L7.91901 1.37575H7.26393L6.96172 0.705627L6.70399 1.37575H5.93555L6.52388 1.89612L6.32517 2.62575H6.01393L5.71172 1.95563L5.45399 2.62575H5.08136L4.9043 1.89612L5.41901 1.37575H4.76393L4.46172 0.705627L4.20399 1.37575H3.43555L4.02388 1.89612L3.82517 2.62575H3.51393L3.21172 1.95563L2.95399 2.62575H2.58136L2.4043 1.89612L2.91901 1.37575H2.26393L1.96172 0.705627L1.70399 1.37575H0.935547L1.52388 1.89612L1.30025 2.71725ZM8.82517 5.12575L9.02388 4.39612L8.43555 3.87575H8.72647L8.21265 3.50583L7.6816 3.87575H7.91901L7.4043 4.39612L7.58136 5.12575H7.95399L8.21172 4.45563L8.51393 5.12575H8.82517ZM7.47647 5.12575L6.96265 4.75583L6.4316 5.12575H6.66901L6.1543 5.64612L6.33136 6.37575H6.70399L6.96172 5.70563L7.26393 6.37575H7.57517L7.77388 5.64612L7.18555 5.12575H7.47647ZM5.27388 5.64612L5.07517 6.37575H4.76393L4.46172 5.70563L4.20399 6.37575H3.83136L3.6543 5.64612L4.16901 5.12575H3.9316L4.46265 4.75583L4.97647 5.12575H4.68555L5.27388 5.64612ZM5.45399 5.12575H5.08136L4.9043 4.39612L5.41901 3.87575H5.1816L5.71265 3.50583L6.22647 3.87575H5.93555L6.52388 4.39612L6.32517 5.12575H6.01393L5.71172 4.45563L5.45399 5.12575ZM3.82517 5.12575L4.02388 4.39612L3.43555 3.87575H3.72647L3.21265 3.50583L2.6816 3.87575H2.91901L2.4043 4.39612L2.58136 5.12575H2.95399L3.21172 4.45563L3.51393 5.12575H3.82517ZM7.77388 3.14612L7.57517 3.87575H7.26393L6.96172 3.20563L6.70399 3.87575H6.33136L6.1543 3.14612L6.66901 2.62575H6.4316L6.96265 2.25583L7.47647 2.62575H7.18555L7.77388 3.14612ZM4.97647 2.62575L4.46265 2.25583L3.9316 2.62575H4.16901L3.6543 3.14612L3.83136 3.87575H4.20399L4.46172 3.20563L4.76393 3.87575H5.07517L5.27388 3.14612L4.68555 2.62575H4.97647Z" fill="#F7FCFF"/>
</g>
</svg>
