<svg width="128" height="33" viewBox="0 0 128 33" fill="none" xmlns="http://www.w3.org/2000/svg">
<g clip-path="url(#clip0)">
<path d="M29 28C29 28.5523 28.5523 29 28 29L4 29C3.44772 29 3 28.5523 3 28C3 27.4477 3.44772 27 4 27L28 27C28.5523 27 29 27.4477 29 28Z" fill="#B2BEC3"/>
<path d="M13 25C12.4477 25 12 24.5523 12 24V16C12 15.4477 12.4477 15 13 15C13.5523 15 14 15.4477 14 16V24C14 24.5523 13.5523 25 13 25Z" fill="#B2BEC3"/>
<path d="M7 25C6.44772 25 6 24.5523 6 24L6 16C6 15.4477 6.44772 15 7 15C7.55228 15 8 15.4477 8 16L8 24C8 24.5523 7.55228 25 7 25Z" fill="#B2BEC3"/>
<path d="M19 25C18.4477 25 18 24.5523 18 24V16C18 15.4477 18.4477 15 19 15C19.5523 15 20 15.4477 20 16V24C20 24.5523 19.5523 25 19 25Z" fill="#B2BEC3"/>
<path d="M25 25C24.4477 25 24 24.5523 24 24V16C24 15.4477 24.4477 15 25 15C25.5523 15 26 15.4477 26 16V24C26 24.5523 25.5523 25 25 25Z" fill="#B2BEC3"/>
<path fill-rule="evenodd" clip-rule="evenodd" d="M4.59766 10.0065C3.59766 10.5055 3 11 3 11.5603C3 12.4073 3.79128 13 4.59766 13H27.5C28.2895 13 29 12.5009 29 11.5422C29 10.4002 28 10 28 10L16.9023 4.21647C16.3658 3.92518 15.6318 3.93052 15.0977 4.21647L4.59766 10.0065ZM7 11H25.5L16 6.5L7 11Z" fill="#B2BEC3"/>
<path d="M40.0117 14V4.04688H43.4229C44.5485 4.04688 45.4053 4.27246 45.9932 4.72363C46.5811 5.1748 46.875 5.84701 46.875 6.74023C46.875 7.19596 46.752 7.60612 46.5059 7.9707C46.2598 8.33529 45.8997 8.61784 45.4258 8.81836C45.9635 8.96419 46.3783 9.23991 46.6699 9.64551C46.9661 10.0465 47.1143 10.5296 47.1143 11.0947C47.1143 12.029 46.8135 12.7467 46.2119 13.248C45.6149 13.7493 44.7581 14 43.6416 14H40.0117ZM41.7412 9.50879V12.6191H43.6621C44.2044 12.6191 44.6283 12.4847 44.9336 12.2158C45.2389 11.9469 45.3916 11.5732 45.3916 11.0947C45.3916 10.0602 44.863 9.53158 43.8057 9.50879H41.7412ZM41.7412 8.2373H43.4365C43.9743 8.2373 44.3936 8.11654 44.6943 7.875C44.9997 7.62891 45.1523 7.28255 45.1523 6.83594C45.1523 6.34375 45.0111 5.98828 44.7285 5.76953C44.4505 5.55078 44.0153 5.44141 43.4229 5.44141H41.7412V8.2373ZM54.415 11.6826H50.5596L49.7529 14H47.9551L51.7148 4.04688H53.2666L57.0332 14H55.2285L54.415 11.6826ZM51.0449 10.2881H53.9297L52.4873 6.15918L51.0449 10.2881ZM66.0635 14H64.334L59.8975 6.93848V14H58.168V4.04688H59.8975L64.3477 11.1357V4.04688H66.0635V14ZM70.9648 9.7002L69.8369 10.8965V14H68.1074V4.04688H69.8369V8.71582L70.7939 7.5332L73.7061 4.04688H75.7979L72.0996 8.45605L76.0098 14H73.959L70.9648 9.7002ZM47.2031 21.4414H44.0996V30H42.3838V21.4414H39.3076V20.0469H47.2031V21.4414ZM52.1729 26.165H50.2451V30H48.5156V20.0469H52.0156C53.1641 20.0469 54.0505 20.3044 54.6748 20.8193C55.2992 21.3343 55.6113 22.0794 55.6113 23.0547C55.6113 23.7201 55.4495 24.2783 55.126 24.7295C54.807 25.1761 54.3604 25.5202 53.7861 25.7617L56.0215 29.9111V30H54.1689L52.1729 26.165ZM50.2451 24.7773H52.0225C52.6058 24.7773 53.0615 24.6315 53.3896 24.3398C53.7178 24.0436 53.8818 23.6403 53.8818 23.1299C53.8818 22.5967 53.7292 22.1842 53.4238 21.8926C53.123 21.6009 52.6719 21.4505 52.0703 21.4414H50.2451V24.7773ZM62.8232 27.6826H58.9678L58.1611 30H56.3633L60.123 20.0469H61.6748L65.4414 30H63.6367L62.8232 27.6826ZM59.4531 26.2881H62.3379L60.8955 22.1592L59.4531 26.2881ZM74.4717 30H72.7422L68.3057 22.9385V30H66.5762V20.0469H68.3057L72.7559 27.1357V20.0469H74.4717V30ZM81.7178 27.4365C81.7178 26.999 81.5628 26.6618 81.2529 26.4248C80.9476 26.1878 80.3939 25.9486 79.5918 25.707C78.7897 25.4655 78.1517 25.1966 77.6777 24.9004C76.7708 24.3307 76.3174 23.5879 76.3174 22.6719C76.3174 21.8698 76.6432 21.209 77.2949 20.6895C77.9512 20.1699 78.8011 19.9102 79.8447 19.9102C80.5374 19.9102 81.1549 20.0378 81.6973 20.293C82.2396 20.5482 82.6657 20.9128 82.9756 21.3867C83.2855 21.8561 83.4404 22.3779 83.4404 22.9521H81.7178C81.7178 22.4326 81.5537 22.027 81.2256 21.7354C80.902 21.4391 80.4372 21.291 79.8311 21.291C79.266 21.291 78.8262 21.4118 78.5117 21.6533C78.2018 21.8949 78.0469 22.2321 78.0469 22.665C78.0469 23.0296 78.2155 23.335 78.5527 23.5811C78.89 23.8226 79.446 24.0596 80.2207 24.292C80.9954 24.5199 81.6175 24.7819 82.0869 25.0781C82.5563 25.3698 82.9004 25.707 83.1191 26.0898C83.3379 26.4681 83.4473 26.9124 83.4473 27.4229C83.4473 28.2523 83.1283 28.9131 82.4902 29.4053C81.8568 29.8929 80.9954 30.1367 79.9062 30.1367C79.1862 30.1367 78.5231 30.0046 77.917 29.7402C77.3154 29.4714 76.846 29.1022 76.5088 28.6328C76.1761 28.1634 76.0098 27.6165 76.0098 26.9922H77.7393C77.7393 27.5573 77.9261 27.9948 78.2998 28.3047C78.6735 28.6146 79.209 28.7695 79.9062 28.7695C80.5078 28.7695 80.959 28.6488 81.2598 28.4072C81.5651 28.1611 81.7178 27.8376 81.7178 27.4365ZM90.7002 25.7822H86.6943V30H84.9648V20.0469H91.2881V21.4414H86.6943V24.4014H90.7002V25.7822ZM98.4795 25.5566H94.3916V28.6191H99.1699V30H92.6621V20.0469H99.1221V21.4414H94.3916V24.1895H98.4795V25.5566ZM104.235 26.165H102.308V30H100.578V20.0469H104.078C105.227 20.0469 106.113 20.3044 106.737 20.8193C107.362 21.3343 107.674 22.0794 107.674 23.0547C107.674 23.7201 107.512 24.2783 107.188 24.7295C106.869 25.1761 106.423 25.5202 105.849 25.7617L108.084 29.9111V30H106.231L104.235 26.165ZM102.308 24.7773H104.085C104.668 24.7773 105.124 24.6315 105.452 24.3398C105.78 24.0436 105.944 23.6403 105.944 23.1299C105.944 22.5967 105.792 22.1842 105.486 21.8926C105.186 21.6009 104.734 21.4505 104.133 21.4414H102.308V24.7773Z" fill="#84949A"/>
</g>
<defs>
<clipPath id="clip0">
<rect width="128" height="33" fill="white"/>
</clipPath>
</defs>
</svg>
