<svg width="12" height="12" viewBox="0 0 12 12" fill="none" xmlns="http://www.w3.org/2000/svg">
<g clip-path="url(#clip0_1_65)">
<rect width="12" height="12" fill="white"/>
<path d="M12 0H0V12H12V0Z" fill="url(#paint0_linear_1_65)"/>
<path d="M3 11L6 9.44444L9 11V-2H3V11ZM7.94472 2.39682C7.94472 2.39682 8.18593 4.04762 7.08543 4.84127C6.9799 4.63492 6.82915 4.47619 6.66332 4.33333C6.8593 4.1746 7.59799 3.52381 7.94472 2.39682ZM3.33166 5.14285C3.45226 4.98412 3.57287 4.80952 3.70854 4.65079L4.50754 5.09524C4.50754 5.09524 3.1809 4.01587 4.13065 3C5.0804 1.98412 5.69849 2.06349 6.30151 0.841269C6.30151 0.841269 6.31658 2.20635 5.29146 2.87301C4.26633 3.53968 5.15578 4.50793 5.15578 4.50793L4.9598 3.77778C4.9598 3.77778 6.61809 3.90476 7.07035 5.15873L7.92965 7.33333C7.92965 7.33333 7.80904 7.85714 7.1005 8.14286C7.1005 8.14286 6.54271 7.39682 5.72864 7.4127L8.68342 10.4762L6.01507 9.03174L3.34674 10.4762V5.14285H3.33166Z" fill="white"/>
</g>
<defs>
<linearGradient id="paint0_linear_1_65" x1="0" y1="5.99996" x2="11.9994" y2="5.99996" gradientUnits="userSpaceOnUse">
<stop stop-color="#8F4DED"/>
<stop offset="1" stop-color="#6D43E1"/>
</linearGradient>
<clipPath id="clip0_1_65">
<rect width="12" height="12" fill="white"/>
</clipPath>
</defs>
</svg>
