<svg width="70" height="24" viewBox="0 0 70 24" fill="none" xmlns="http://www.w3.org/2000/svg">
<path d="M50.2816 5.76617C50.85 5.76677 51.4059 5.59811 51.8787 5.28154C52.3516 4.96498 52.7203 4.51473 52.9381 3.98779C53.1559 3.46085 53.213 2.88091 53.1023 2.32137C52.9915 1.76182 52.7179 1.24783 52.3159 0.844438C51.914 0.441049 51.4018 0.1664 50.8443 0.0552521C50.2868 -0.0558963 49.7089 0.0014526 49.1839 0.22004C48.6588 0.438628 48.2102 0.808628 47.8948 1.28321C47.5793 1.75779 47.4113 2.31563 47.4119 2.8861C47.4127 3.6497 47.7153 4.38179 48.2533 4.92174C48.7913 5.46168 49.5208 5.76538 50.2816 5.76617ZM28.2765 7.32232C27.4915 9.39497 26.3751 11.3253 24.971 13.0372V1.31186L18.9611 2.51818V23.7523H24.971V17.19C26.7139 19.8107 27.5733 23.7583 27.5733 23.7583H34.7851C34.073 20.7848 30.9569 15.3141 30.9569 15.3141C32.8039 12.9155 34.2269 10.2164 35.1638 7.33438L28.2765 7.32232ZM44.0854 7.09915C38.7006 7.27407 35.9721 9.69875 35.9721 14.518V23.7523H41.8467V16.2128C41.8467 13.3267 42.2224 12.0903 45.636 11.9696V7.18359C45.125 7.10636 44.6078 7.07809 44.0914 7.09915H44.0854ZM8.85855 9.6505C8.12234 9.60225 6.41554 9.49067 6.41554 7.9496C6.41554 6.09188 8.87057 6.09188 9.79008 6.09188C11.4097 6.09188 13.5072 6.57139 15.0036 7.02074C15.0036 7.02074 15.839 7.32232 16.5512 7.6239L16.6173 7.64199V2.55738L16.5272 2.53024C14.7602 1.90899 12.7049 1.32393 8.89461 1.32393C2.32883 1.31186 0 5.15096 0 8.44419C0 10.3411 0.811333 14.8045 8.33269 15.3202C8.96974 15.3594 10.6615 15.4589 10.6615 17.0482C10.6615 18.3631 9.27624 19.1381 6.94441 19.1381C4.70742 19.1175 2.49318 18.6851 0.411676 17.8625V23.1069C2.95214 23.7369 5.56287 24.0359 8.17944 23.9966C14.601 23.9966 17.4797 20.3776 17.4797 16.7587C17.4767 12.6663 14.2584 10.0245 8.85855 9.6505ZM47.3668 23.7523H53.1874V7.34041H47.3578L47.3668 23.7523ZM64.1704 2.35834V23.7523H70V1.31186L64.1704 2.35834ZM55.6665 2.35834L61.49 1.31186V23.7523H55.6634V2.35834H55.6665Z" fill="#842164"/>
</svg>
