<svg width="60" height="60" viewBox="0 0 60 60" xmlns="http://www.w3.org/2000/svg">
<path fill-rule="evenodd" clip-rule="evenodd" d="M13.6219 1.02627C15.139 0.149616 17.0795 0.668788 17.9562 2.18587L20.6513 6.85C22.7596 5.55686 25.251 4.70353 27.949 4.44355H31.4482C34.1466 4.70363 36.6383 5.55719 38.7466 6.85058L41.4424 2.1858C42.3191 0.668735 44.2596 0.149617 45.7767 1.02631C47.2937 1.90301 47.8128 3.84353 46.9361 5.36059L43.4448 11.4021C44.6617 13.3116 45.3667 15.5015 45.3992 17.8322H13.998C14.0305 15.5011 14.7357 13.3108 15.9529 11.4012L12.4623 5.36052C11.5856 3.84343 12.1048 1.90292 13.6219 1.02627ZM34.0713 46.7162H25.3267V55.6588C25.3267 57.5799 23.7679 59.1371 21.845 59.1371C19.9223 59.1371 18.3634 57.5799 18.3634 55.6588V46.7162H18.1926C15.8013 46.7162 13.8749 44.7574 13.8749 42.326V19.7175C13.8749 19.5827 13.8849 19.4493 13.8964 19.3174H45.5067C45.5179 19.4488 45.5228 19.5827 45.5228 19.7175V42.326C45.5228 44.7572 43.5965 46.7162 41.2049 46.7162H41.0346V55.6587C41.0346 57.5799 39.4757 59.1371 37.5528 59.1371C35.6301 59.1371 34.0713 57.5799 34.0713 55.6587V46.7162ZM11.7621 24.808C11.7621 22.8868 10.2033 21.3294 8.2806 21.3294C6.35745 21.3294 4.79858 22.8871 4.79883 24.8082V39.7304C4.79883 41.6513 6.35769 43.2088 8.2806 43.2088C10.2033 43.2088 11.7621 41.6513 11.7621 39.7302V24.808ZM54.5988 24.808C54.5988 22.8868 53.04 21.3294 51.1173 21.3294C49.1944 21.3294 47.6355 22.8871 47.6355 24.8082V39.7304C47.6355 41.6513 49.1944 43.2088 51.1173 43.2088C53.04 43.2088 54.5988 41.6513 54.5988 39.7302V24.808ZM23.2254 13.3715C24.2205 13.3688 25.0246 12.5795 25.0217 11.6088V11.5991C25.0187 10.6279 24.21 9.84352 23.2154 9.84621C22.2205 9.8489 21.4164 10.6379 21.4191 11.6088V11.6186C21.422 12.5893 22.2308 13.3739 23.2254 13.3715ZM36.6713 13.3715C37.6664 13.3688 38.4705 12.5795 38.4676 11.6088V11.5991C38.4647 10.6279 37.6559 9.84352 36.6613 9.84621C35.6665 9.8489 34.8624 10.6379 34.865 11.6088V11.6186C34.868 12.5893 35.6767 13.3739 36.6713 13.3715Z" fill="url(#paint0_linear_16_6122)"/>
<defs>
<linearGradient id="paint0_linear_16_6122" x1="4.79883" y1="29.8573" x2="54.6073" y2="29.8573" gradientUnits="userSpaceOnUse">
<stop stop-color="#8F4DED"/>
<stop offset="1" stop-color="#6D43E1"/>
</linearGradient>
</defs>
</svg>
