<svg width="61" height="60" viewBox="0 0 61 60" xmlns="http://www.w3.org/2000/svg">
<path fill-rule="evenodd" clip-rule="evenodd" d="M0.25 30C0.25 13.4315 13.6815 0 30.25 0C46.8185 0 60.25 13.4315 60.25 30C60.25 46.5685 46.8185 60 30.25 60C13.6815 60 0.25 46.5685 0.25 30ZM30.2515 14C25.9061 14 25.3608 14.019 23.6541 14.0966C21.9508 14.1746 20.7881 14.4444 19.7708 14.84C18.7184 15.2486 17.8258 15.7954 16.9364 16.685C16.0464 17.5744 15.4996 18.467 15.0896 19.519C14.693 20.5368 14.423 21.6998 14.3464 23.4024C14.27 25.1091 14.25 25.6547 14.25 30.0001C14.25 34.3455 14.2694 34.8892 14.3466 36.5959C14.425 38.2992 14.6946 39.4619 15.09 40.4792C15.499 41.5316 16.0456 42.4243 16.9354 43.3136C17.8244 44.2036 18.717 44.7516 19.7687 45.1604C20.7867 45.556 21.9498 45.8256 23.6528 45.9036C25.3595 45.9814 25.9045 46.0004 30.2495 46.0004C34.5952 46.0004 35.1389 45.9814 36.8456 45.9036C38.5489 45.8256 39.7129 45.556 40.731 45.1604C41.783 44.7516 42.6743 44.2036 43.5633 43.3136C44.4533 42.4243 45 41.5316 45.41 40.4796C45.8034 39.4619 46.0734 38.2989 46.1534 36.5963C46.23 34.8895 46.25 34.3455 46.25 30.0001C46.25 25.6547 46.23 25.1095 46.1534 23.4028C46.0734 21.6994 45.8034 20.5368 45.41 19.5194C45 18.467 44.4533 17.5744 43.5633 16.685C42.6733 15.795 41.7832 15.2484 40.73 14.84C39.7099 14.4444 38.5466 14.1746 36.8433 14.0966C35.1365 14.019 34.5933 14 30.2465 14H30.2515Z" fill="url(#paint0_linear_16_6003)"/>
<path fill-rule="evenodd" clip-rule="evenodd" d="M28.8161 16.8839C29.2421 16.8833 29.7175 16.8839 30.2515 16.8839C34.5235 16.8839 35.0299 16.8993 36.7169 16.9759C38.2769 17.0473 39.1236 17.3079 39.6876 17.5269C40.4343 17.8169 40.9666 18.1635 41.5263 18.7235C42.0863 19.2835 42.433 19.8169 42.7236 20.5636C42.9426 21.1269 43.2036 21.9736 43.2746 23.5336C43.3513 25.2203 43.368 25.727 43.368 29.997C43.368 34.267 43.3513 34.7738 43.2746 36.4604C43.2033 38.0204 42.9426 38.8671 42.7236 39.4304C42.4336 40.1771 42.0863 40.7088 41.5263 41.2685C40.9663 41.8285 40.4346 42.1751 39.6876 42.4651C39.1243 42.6851 38.2769 42.9451 36.7169 43.0165C35.0303 43.0931 34.5235 43.1098 30.2515 43.1098C25.9791 43.1098 25.4728 43.0931 23.7861 43.0165C22.2261 42.9445 21.3794 42.6838 20.8151 42.4648C20.0684 42.1748 19.535 41.8281 18.975 41.2681C18.415 40.7081 18.0684 40.1761 17.7778 39.4291C17.5588 38.8658 17.2978 38.0191 17.2268 36.4591C17.15 34.7724 17.1348 34.2658 17.1348 29.993C17.1348 25.7203 17.15 25.2163 17.2268 23.5296C17.298 21.9696 17.5588 21.1229 17.7778 20.5589C18.0678 19.8123 18.415 19.2789 18.975 18.7189C19.535 18.1589 20.0684 17.8123 20.8151 17.5215C21.3791 17.3015 22.2261 17.0415 23.7861 16.9699C25.2621 16.9033 25.8341 16.8833 28.8161 16.8799V16.8839ZM38.7923 19.5405C37.7323 19.5405 36.8723 20.3996 36.8723 21.4599C36.8723 22.5199 37.7323 23.3799 38.7923 23.3799C39.8523 23.3799 40.7123 22.5199 40.7123 21.4599C40.7123 20.3999 39.8523 19.5405 38.7923 19.5405ZM30.2515 21.7839C25.7138 21.7839 22.0348 25.463 22.0348 30.0006C22.0348 34.5384 25.7138 38.2158 30.2515 38.2158C34.7893 38.2158 38.4669 34.5384 38.4669 30.0006C38.4669 25.463 34.7893 21.7839 30.2515 21.7839Z" fill="url(#paint1_linear_16_6003)"/>
<path fill-rule="evenodd" clip-rule="evenodd" d="M30.2513 24.667C33.1967 24.667 35.5847 27.0547 35.5847 30.0004C35.5847 32.9457 33.1967 35.3337 30.2513 35.3337C27.3056 35.3337 24.918 32.9457 24.918 30.0004C24.918 27.0547 27.3056 24.667 30.2513 24.667Z" fill="url(#paint2_linear_16_6003)"/>
<defs>
<linearGradient id="paint0_linear_16_6003" x1="0.25" y1="29.9884" x2="60.2602" y2="29.9884" gradientUnits="userSpaceOnUse">
<stop stop-color="#8F4DED"/>
<stop offset="1" stop-color="#6D43E1"/>
</linearGradient>
<linearGradient id="paint1_linear_16_6003" x1="17.1348" y1="29.9898" x2="43.3725" y2="29.9898" gradientUnits="userSpaceOnUse">
<stop stop-color="#8F4DED"/>
<stop offset="1" stop-color="#6D43E1"/>
</linearGradient>
<linearGradient id="paint2_linear_16_6003" x1="24.918" y1="29.9983" x2="35.5865" y2="29.9983" gradientUnits="userSpaceOnUse">
<stop stop-color="#8F4DED"/>
<stop offset="1" stop-color="#6D43E1"/>
</linearGradient>
</defs>
</svg>
