<svg width="61" height="60" viewBox="0 0 61 60" xmlns="http://www.w3.org/2000/svg">
<path d="M46.9596 31.8826C46.9338 27.1459 49.0771 23.5708 53.4155 20.9378C50.9881 17.466 47.3211 15.5558 42.4792 15.1815C37.8955 14.8201 32.8857 17.8532 31.0523 17.8532C29.1155 17.8532 24.6738 15.3106 21.1876 15.3106C13.9829 15.4267 6.32617 21.054 6.32617 32.5021C6.32617 35.8837 6.94594 39.377 8.18547 42.9823C9.83818 47.719 15.8034 59.3349 22.0269 59.1413C25.2807 59.0639 27.579 56.831 31.8141 56.831C35.92 56.831 38.0505 59.1413 41.6787 59.1413C47.9538 59.0509 53.3509 48.4934 54.9262 43.7438C46.5077 39.7814 46.9596 32.1278 46.9596 31.8826ZM39.6515 10.69C43.1764 6.5083 42.8536 2.70086 42.7503 1.33276C39.6386 1.51346 36.0362 3.44944 33.9832 5.83716C31.7237 8.39266 30.3938 11.5548 30.6778 15.117C34.0478 15.3751 37.1208 13.6456 39.6515 10.69Z" fill="url(#paint0_linear_16_6140)"/>
<defs>
<linearGradient id="paint0_linear_16_6140" x1="6.32617" y1="30.2271" x2="54.9344" y2="30.2271" gradientUnits="userSpaceOnUse">
<stop stop-color="#8F4DED"/>
<stop offset="1" stop-color="#6D43E1"/>
</linearGradient>
</defs>
</svg>
