<svg width="61" height="60" viewBox="0 0 61 60" xmlns="http://www.w3.org/2000/svg">
<path fill-rule="evenodd" clip-rule="evenodd" d="M0.25 30C0.25 13.4315 13.6815 0 30.25 0C46.8185 0 60.25 13.4315 60.25 30C60.25 46.5685 46.8185 60 30.25 60C13.6815 60 0.25 46.5685 0.25 30ZM21.4506 24.8472H14.652V45.2745H21.4506V24.8472ZM21.8985 18.5284C21.8544 16.5255 20.4221 15 18.0963 15C15.7705 15 14.25 16.5255 14.25 18.5284C14.25 20.4897 15.7256 22.0591 18.008 22.0591H18.0515C20.4221 22.0591 21.8985 20.4897 21.8985 18.5284ZM45.9693 33.5621C45.9693 27.2879 42.6152 24.3676 38.1414 24.3676C34.5317 24.3676 32.9156 26.3503 32.0134 27.7411V24.8479H25.2139C25.3035 26.7646 25.2139 45.275 25.2139 45.275H32.0134V33.8667C32.0134 33.2562 32.0575 32.6473 32.2372 32.2103C32.7286 30.9905 33.8474 29.7277 35.7256 29.7277C38.1868 29.7277 39.1706 31.6009 39.1706 34.3459V45.2745H45.969L45.9693 33.5621Z" fill="url(#paint0_linear_16_6007)"/>
<defs>
<linearGradient id="paint0_linear_16_6007" x1="0.25" y1="29.9884" x2="60.2602" y2="29.9884" gradientUnits="userSpaceOnUse">
<stop stop-color="#8F4DED"/>
<stop offset="1" stop-color="#6D43E1"/>
</linearGradient>
</defs>
</svg>
