<svg width="61" height="60" viewBox="0 0 61 60" xmlns="http://www.w3.org/2000/svg">
<path fill-rule="evenodd" clip-rule="evenodd" d="M0.25 30C0.25 13.4315 13.6815 0 30.25 0C46.8185 0 60.25 13.4315 60.25 30C60.25 46.5685 46.8185 60 30.25 60C13.6815 60 0.25 46.5685 0.25 30ZM32.7876 43.8074L32.783 43.8097C34.3993 46.5804 36.5581 48.9447 40.6332 48.9447C47.3684 48.9447 48.1141 42.7406 47.9756 41.2469H45.5651C45.4404 42.369 44.6924 43.7959 42.8452 43.7959C41.1505 43.7959 39.9314 42.6184 38.7539 40.8474C42.4135 38.012 44.9301 33.6275 44.9301 28.2315C44.9301 18.5296 36.9414 12 28.5601 12C20.3172 12 12.25 18.5804 12.25 28.2315C12.25 37.795 20.3196 44.3708 28.5624 44.3708C29.9893 44.3708 31.43 44.1699 32.7876 43.8074Z" fill="url(#paint0_linear_16_6009)"/>
<path fill-rule="evenodd" clip-rule="evenodd" d="M31.2517 40.806C29.9726 38.2892 28.4719 35.7425 25.5419 35.7425C24.9831 35.7425 24.422 35.8349 23.9095 36.0658L22.9166 34.0801C24.1265 33.0365 26.0867 32.2099 28.6057 32.2099C32.524 32.2099 34.535 34.1032 36.1327 36.5091C37.0794 34.4541 37.5274 31.6742 37.5274 28.2316C37.5274 19.6334 34.8397 15.2188 28.5595 15.2188C22.3717 15.2188 19.6934 19.6334 19.6934 28.2316C19.6934 36.7839 22.3717 41.1522 28.5595 41.1522C29.5431 41.1522 30.4344 41.0461 31.2517 40.806Z" fill="url(#paint1_linear_16_6009)"/>
<defs>
<linearGradient id="paint0_linear_16_6009" x1="0.25" y1="29.9884" x2="60.2602" y2="29.9884" gradientUnits="userSpaceOnUse">
<stop stop-color="#8F4DED"/>
<stop offset="1" stop-color="#6D43E1"/>
</linearGradient>
<linearGradient id="paint1_linear_16_6009" x1="19.6934" y1="28.1805" x2="37.5304" y2="28.1805" gradientUnits="userSpaceOnUse">
<stop stop-color="#8F4DED"/>
<stop offset="1" stop-color="#6D43E1"/>
</linearGradient>
</defs>
</svg>
